<svg width="24" height="25" viewBox="0 0 24 25" fill="none" xmlns="http://www.w3.org/2000/svg">
<path d="M5.87264 9.37467C7.69161 9.37467 9.16618 7.74238 9.16618 5.72884C9.16618 3.7153 7.69161 2.08301 5.87264 2.08301C4.05367 2.08301 2.5791 3.7153 2.5791 5.72884C2.5791 7.74238 4.05367 9.37467 5.87264 9.37467Z" stroke="#75CB66" stroke-width="1.5"/>
<path d="M16.6945 15.625H19.5176C20.5527 15.625 21.3996 16.5625 21.3996 17.7083V20.8333C21.3996 21.9792 20.5527 22.9167 19.5176 22.9167H16.6945C15.6594 22.9167 14.8125 21.9792 14.8125 20.8333V17.7083C14.8125 16.5625 15.6594 15.625 16.6945 15.625Z" stroke="#75CB66" stroke-width="1.5"/>
<path d="M12.0177 5.20801H14.5396C16.2805 5.20801 17.0898 7.59342 15.7818 8.86426L8.26309 16.1455C6.95509 17.4059 7.76436 19.7913 9.49582 19.7913H12.0177" stroke="#75CB66" stroke-width="1.5" stroke-linecap="round" stroke-linejoin="round"/>
<path d="M5.88863 5.72884H5.89951" stroke="#75CB66" stroke-width="2" stroke-linecap="round" stroke-linejoin="round"/>
<path d="M18.1211 19.2708H18.1319" stroke="#75CB66" stroke-width="2" stroke-linecap="round" stroke-linejoin="round"/>
</svg>
